# AST/ASF file generated using VICON BodyLanguage
# -----------------------------------------------
:version 1.10
:name VICON
:units
  mass 1.0
  length 0.45
  angle deg
:documentation
   .ast/.asf automatically generated from VICON data using
   VICON BodyBuilder and BodyLanguage model FoxedUp or BRILLIANT.MOD
:root
   order TX TY TZ RX RY RZ
   axis XYZ
   position 0 0 0  
   orientation 0 0 0 
:bonedata
  begin
     id 1 
     name lhipjoint
     direction 0.603808 -0.713975 0.35448 
     length 2.2025 
     axis 0 0 0  XYZ
  end
  begin
     id 2 
     name lfemur
     direction 0.34202 -0.939693 0  
     length 6.55877  
     axis 0 0 20  XYZ
    dof rx ry rz
    limits (-160.0 20.0)
           (-70.0 70.0)
           (-60.0 70.0)
  end
  begin
     id 3 
     name ltibia
     direction 0.34202 -0.939693 0   
     length 6.80302   
     axis 0 0 20   XYZ
    dof rx
    limits (-10.0 170.0)
  end
  begin
     id 4 
     name lfoot
     direction 0.091848 -0.25235 0.963267   
     length 2.03446   
     axis -90 7.62852e-016 20   XYZ
    dof rx rz
    limits (-45.0 90.0)
           (-70.0 20.0)
  end
  begin
     id 5 
     name ltoes
     direction 1.53608e-011 -4.21925e-011 1   
     length 1.02033   
     axis -90 7.62852e-016 20   XYZ
    dof rx
    limits (-90.0 20.0)
  end
  begin
     id 6 
     name rhipjoint
     direction -0.587285 -0.724947 0.359928   
     length 2.16916  
     axis 0 0 0  XYZ 
  end
  begin
     id 7 
     name rfemur
     direction -0.34202 -0.939693 0   
     length 6.43173   
     axis 0 0 -20   XYZ
    dof rx ry rz
    limits (-160.0 20.0)
           (-70.0 70.0)
           (-70.0 60.0)
  end
  begin
     id 8 
     name rtibia
     direction -0.34202 -0.939693 0   
     length 6.70662   
     axis 0 0 -20   XYZ
    dof rx
    limits (-10.0 170.0)
 end
 begin
     id 9 
     name rfoot
     direction -0.11854 -0.325686 0.938018   
     length 2.0773  
     axis -90 -7.62852e-016 -20   XYZ
    dof rx rz
    limits (-45.0 90.0)
           (-20.0 70.0)
  end
  begin
     id 10 
     name rtoes
     direction -1.53547e-011 -4.21838e-011 1   
     length 1.03267   
     axis -90 -7.62852e-016 -20   XYZ
    dof rx
    limits (-90.0 20.0)
  end
  begin
     id 11 
     name lowerback
     direction -0.0286554 0.999539 0.0100613   
     length 2.08751   
     axis 0 0 0   XYZ
    dof rx ry rz
    limits (-20.0 45.0)
           (-30.0 30.0)
           (-30.0 30.0)
  end
  begin
     id 12 
     name upperback
     direction 0.0227093 0.999705 -0.00860929   
     length 2.08517   
     axis 0 0 0   XYZ
    dof rx ry rz
    limits (-20.0 45.0)
           (-30.0 30.0)
           (-30.0 30.0)
  end
  begin
     id 13 
     name thorax
     direction 0.0351627 0.999285 -0.013892   
     length 2.08412   
     axis 0 0 0   XYZ
    dof rx ry rz
    limits (-20.0 45.0)
           (-30.0 30.0)
           (-30.0 30.0)
  end
  begin
     id 14 
     name lowerneck
     direction -0.0696283 0.997344 0.0213922   
     length 1.44164   
     axis 0 0 0   XYZ
    dof rx ry rz
    limits (-20.0 45.0)
           (-30.0 30.0)
           (-30.0 30.0)
  end
  begin
     id 15 
     name upperneck
     direction 0.0531 0.990412 -0.127531   
     length 1.45022   
     axis 0 0 0   XYZ
    dof rx ry rz
    limits (-20.0 45.0)
           (-30.0 30.0)
           (-30.0 30.0)
  end
  begin
     id 16
     name head
     direction 0.0188154 0.998548 -0.0504727  
     length 1.45845  
     axis 0 0 0   XYZ
    dof rx ry rz
    limits (-20.0 45.0)
           (-30.0 30.0)
           (-30.0 30.0)
  end
  begin
     id 17 
     name lclavicle
     direction 0.961559 0.260051 0.088188  
     length 2.86057  
     axis 0 0 0   XYZ
    dof ry rz
    limits (-20.0 10.0)
           (0.0 20.0)
  end
  begin
     id 18 
     name lhumerus
     direction 1 -4.48959e-011 2.88185e-027   
     length 4.36901   
     axis 180 -30 -90   XYZ
    dof rx ry rz
    limits (-60.0 90.0)
           (-90.0 90.0)
           (-90.0 90.0)
  end
  begin
     id 19
     name lradius
     direction 1 -4.48965e-011 -3.92618e-028   
     length 3.21737   
     axis 180 -30 -90   XYZ
    dof rx
    limits (-10.0 170.0)
  end
  begin
     id 20
     name lwrist
     direction 1 -4.49037e-011 2.57246e-027   
     length 1.60869   
     axis -1.61769e-015 90 90   XYZ
    dof ry
    limits (-180.0 0.0)
 end
  begin
     id 21 
     name lhand
     direction 1 -4.48807e-011 5.12958e-027   
     length 0.564313   
     axis -3.27988e-015 90 90   XYZ
    dof rx rz
    limits (-90.0 90.0)
           (-45.0 45.0)
  end
  begin
     id 22 
     name lfingers
     direction 1 -4.48879e-011 1.02687e-026   
     length 0.454963   
     axis -6.5598e-015 90 90   XYZ
    dof rx
    limits (0.0 90.0)
  end
  begin
     id 23
     name lthumb
     direction 0.707107 -6.3475e-011 0.707107   
     length 0.653239   
     axis -90 45 2.19363e-014   XYZ
    dof rx rz
    limits (-45.0 45.0)
           (-45.0 45.0)
  end
  begin
     id 24 
     name rclavicle
     direction -0.954677 0.253915 0.155304   
     length 3.11497  
     axis 0 0 0   XYZ 
    dof ry rz
    limits (-10.0 20.0)
           (-20.0 0.0)
  end
  begin
     id 25 
     name rhumerus
     direction -1 -4.48958e-011 -8.20169e-028  
     length 4.34118   
     axis 180 30 90   XYZ
    dof rx ry rz
    limits (-90.0 60.0)
           (-90.0 90.0)
           (-90.0 90.0)
  end
  begin
     id 26 
     name rradius
     direction -1 -4.48978e-011 1.5676e-027   
     length 3.09531   
     axis 180 30 90   XYZ
    dof rx
    limits (-10.0 170.0)
  end
  begin
     id 27 
     name rwrist
     direction -1 -4.49001e-011 2.57123e-027   
     length 1.54765   
     axis -1.61769e-015 -90 -90   XYZ
    dof ry
    limits (-180.0 0.0)
  end
  begin
     id 28
     name rhand
     direction -1 -4.48847e-011 5.13225e-027   
     length 0.597446   
     axis -3.27988e-015 -90 -90   XYZ
    dof rx rz
    limits (-90.0 90.0)
           (-45.0 45.0)
  end
  begin
     id 29
     name rfingers
     direction -1 -4.49094e-011 1.02974e-026   
     length 0.481677   
     axis -6.5598e-015 -90 -90   XYZ
    dof rx
    limits (0.0 90.0)
  end
  begin
     id 30
     name rthumb
     direction -0.707107 -6.34859e-011 0.707107   
     length 0.691594   
     axis -90 -45 -2.19363e-014   XYZ
    dof rx rz
    limits (-45.0 45.0)
           (-45.0 45.0)
  end
:hierarchy
  begin
    root lhipjoint rhipjoint lowerback
    lhipjoint lfemur
    lfemur ltibia
    ltibia lfoot
    lfoot ltoes
    rhipjoint rfemur
    rfemur rtibia
    rtibia rfoot
    rfoot rtoes
    lowerback upperback
    upperback thorax
    thorax lowerneck lclavicle rclavicle
    lowerneck upperneck
    upperneck head
    lclavicle lhumerus
    lhumerus lradius
    lradius lwrist
    lwrist lhand lthumb
    lhand lfingers
    rclavicle rhumerus
    rhumerus rradius
    rradius rwrist
    rwrist rhand rthumb
    rhand rfingers
  end

#!OML:ASF I:\Acrobat_Osman\acrobat\cartwheel_test 2\Patient 1\Session 1\acrobat.ASF
:FULLY-SPECIFIED
:DEGREES
1008
root 17.89 10.338 7.24694 125.723 580.357 -794.941
lowerback 27.9466 -4.90634 5.2931
upperback 10.0873 -5.0856 6.61493
thorax -3.80584 -2.67266 5.85478
lowerneck -19.6324 3.56722 -3.04693
upperneck 2.51585 5.85451 -5.60025
head 3.94657 2.46902 -0.749645
rclavicle 4.45278e-014 3.97569e-014
rhumerus -28.3808 5.67642 313.116
rradius 103.926
rwrist -533.535
rhand -31.8307 -393.061
rfingers 7.12502
rthumb -5.08525 -62.9797
lclavicle 4.45278e-014 3.97569e-014
lhumerus -15.0306 0.700346 69.1552
lradius 51.8285
lwrist 46.8877
lhand -30.786 51.2533
lfingers 7.12502
lthumb -4.07653 -278.806
rfemur -98.6417 8.76335 16.7493
rtibia 54.9103
rfoot -12.0346 -7.03317
rtoes -1.64974
lfemur -58.1253 25.0143 -42.8831
ltibia 94.2306
lfoot -10.4072 -2.17488
ltoes -46.8822
1009
root 18.1378 9.87547 7.10375 133.283 580.669 -805.799
lowerback 26.7903 -5.10879 4.69706
upperback 9.82888 -5.46252 7.29183
thorax -3.40521 -2.86694 6.96495
lowerneck -19.0161 3.62569 -1.57636
upperneck 3.16001 5.73226 -6.76436
head 4.13852 2.35479 -1.3508
rclavicle -5.725e-014 -8.74653e-014
rhumerus -36.2067 5.70924 311.512
rradius 109.559
rwrist -532.035
rhand -29.3294 -395.124
rfingers 7.12502
rthumb -2.66979 -65.0867
lclavicle -5.725e-014 -8.74653e-014
lhumerus -16.2083 -1.07359 71.5011
lradius 52.7935
lwrist 44.5342
lhand -30.9678 50.436
lfingers 7.12502
lthumb -4.25205 -279.627
rfemur -98.297 7.6367 15.8848
rtibia 53.4486
rfoot -10.8397 -7.65943
rtoes -10.427
lfemur -58.3413 27.1878 -43.6764
ltibia 101.134
lfoot -10.003 -3.42585
ltoes -45.4419
1010
root 18.3431 9.39663 6.98568 141.571 579.926 -817.364
lowerback 25.7722 -5.84964 5.12552
upperback 9.5356 -6.25653 7.88782
thorax -3.14045 -3.23599 7.52887
lowerneck -18.8616 3.6843 -0.961736
upperneck 4.37233 5.76802 -6.72702
head 4.5104 2.3599 -1.42333
rclavicle 3.81667e-014 4.45278e-014
rhumerus -37.9902 7.70189 309.734
rradius 112.047
rwrist -534.266
rhand -22.466 -399.831
rfingers 7.12502
rthumb 3.95873 -69.7737
lclavicle 3.81667e-014 4.45278e-014
lhumerus -18.4213 -1.93129 72.5154
lradius 54.1476
lwrist 42.6415
lhand -31.6765 49.3899
lfingers 7.12502
lthumb -4.93641 -280.688
rfemur -98.3448 6.02682 14.8727
rtibia 52.2113
rfoot -10.145 -8.14963
rtoes -17.9693
lfemur -58.4682 29.1568 -43.3687
ltibia 107.773
lfoot -10.1533 -3.33072
ltoes -44.8766
1011
root 18.4925 8.94329 6.82319 148.972 578.572 -828.577
lowerback 25.8835 -6.50402 5.80837
upperback 9.46091 -6.81619 8.37032
thorax -3.22101 -3.48939 7.87363
lowerneck -18.7779 3.52026 -0.878225
upperneck 5.55199 5.51969 -5.79622
head 4.82854 2.27699 -1.16141
rclavicle 9.54166e-015 5.09883e-014
rhumerus -34.3097 9.60321 309.01
rradius 110.899
rwrist -537.882
rhand -13.7989 -404.626
rfingers 7.12502
rthumb 12.323 -74.2428
lclavicle 9.54166e-015 5.09883e-014
lhumerus -20.7273 -2.90067 72.0663
lradius 55.208
lwrist 41.418
lhand -32.2204 49.3741
lfingers 7.12502
lthumb -5.46151 -280.716
rfemur -97.94 4.69323 16.5742
rtibia 50.5732
rfoot -10.185 -11.7483
rtoes -27.1658
lfemur -57.6937 32.4598 -41.5322
ltibia 112.861
lfoot -11.9998 11.1814
ltoes -54.6214
1012
root 18.6008 8.43255 6.6943 156.155 575.778 -839.224
lowerback 25.7517 -6.92362 6.51286
upperback 9.334 -7.08998 8.81587
thorax -3.28159 -3.60119 8.06226
lowerneck -19.2955 3.10281 -0.988508
upperneck 7.19358 4.93861 -4.43539
head 5.36743 2.04095 -0.755126
rclavicle 4.45278e-014 3.97569e-015
rhumerus -29.6822 10.1106 309.327
rradius 106.955
rwrist -537.955
rhand 7.82953 -424.515
rfingers 7.12502
rthumb 33.0649 91.5019
lclavicle 4.45278e-014 3.97569e-015
lhumerus -22.0093 -3.72474 70.2098
lradius 55.212
lwrist 42.4803
lhand -31.2835 50.2809
lfingers 7.12502
lthumb -4.55685 -279.788
rfemur -98.4021 3.16437 16.8354
rtibia 49.0281
rfoot -11.3137 -17.0853
rtoes -36.7847
lfemur -61.1547 32.7468 -36.1668
ltibia 117.997
lfoot -22.7175 7.7232
ltoes -43.9465
1013
root 18.6598 7.92383 6.45063 161.482 570.479 -848.141
lowerback 26.6055 -7.0984 5.83917
upperback 9.1282 -7.22601 9.42894
thorax -3.73604 -3.66722 9.32668
lowerneck -18.6008 2.8108 -0.135975
upperneck 6.40222 4.43383 -5.72456
head 5.05464 1.74927 -1.35905
rclavicle 0 7.4743e-014
rhumerus -25.2563 9.48578 310.85
rradius 101.555
rwrist -535.564
rhand -12.604 -431.494
rfingers 7.12502
rthumb 13.4749 101.038
lclavicle 0 7.4743e-014
lhumerus -22.225 -4.76079 68.5322
lradius 54.8608
lwrist 40.3625
lhand -29.9235 53.7456
lfingers 7.12502
lthumb -3.24361 -276.299
rfemur -97.9034 1.16534 13.6898
rtibia 47.4607
rfoot -13.6267 -22.2163
rtoes -36.171
lfemur -64.7319 32.2732 -31.8762
ltibia 122.04
lfoot -27.6734 10.1914
ltoes -28.9393
1014
root 18.6413 7.43375 6.14961 163.7 563.79 -854.468
lowerback 28.5957 -6.74198 4.47717
upperback 8.97546 -6.81944 9.78045
thorax -4.53661 -3.47984 9.9736
lowerneck -16.5791 2.26379 1.33936
upperneck 3.79695 3.3802 -7.78401
head 3.96919 1.22645 -2.35466
rclavicle 3.18055e-014 -5.08889e-014
rhumerus -23.5251 8.95462 312.597
rradius 91.7661
rwrist -530.003
rhand -14.0716 -610.656
rfingers 7.12502
rthumb 12.0601 138.977
lclavicle 3.18055e-014 -5.08889e-014
lhumerus -20.835 -7.76444 66.6049
lradius 53.7304
lwrist 39.187
lhand -30.3334 53.3809
lfingers 7.12502
lthumb -3.63943 -276.67
rfemur -95.8045 -1.32214 9.12372
rtibia 46.3219
rfoot -17.776 -24.1663
rtoes -12.7066
lfemur -68.3421 31.2379 -28.3324
ltibia 124.792
lfoot -24.2079 12.9532
ltoes -39.1067
1015
root 18.6095 6.89814 5.96102 164.199 557.852 -858.571
lowerback 29.8985 -5.54315 3.79928
upperback 9.55699 -5.42317 8.84708
thorax -4.6592 -2.7785 8.97534
lowerneck -16.5946 1.48104 1.21602
upperneck 4.20987 2.37906 -7.70764
head 4.04915 0.724999 -2.39538
rclavicle 6.67916e-014 -6.67916e-014
rhumerus -24.2799 10.0346 313.71
rradius 79.8197
rwrist -524.351
rhand -13.8617 -604.902
rfingers 7.12502
rthumb 12.2625 144.719
lclavicle 6.67916e-014 -6.67916e-014
lhumerus -18.152 -9.01982 64.2091
lradius 53.5324
lwrist 36.4087
lhand -31.4208 50.7741
lfingers 7.12502
lthumb -4.68951 -279.298
rfemur -93.7919 -2.96681 3.58303
rtibia 45.791
rfoot -21.6229 -24.5116
rtoes 4.77009
lfemur -72.6274 31.1311 -26.4533
ltibia 127.404
lfoot -19.5951 15.4324
ltoes -48.3608
1016
root 18.5392 6.36216 5.8477 163.52 551.164 -861.297
lowerback 31.222 -4.70508 2.98605
upperback 10.3233 -4.54542 7.9939
thorax -4.47722 -2.33374 8.26452
lowerneck -16.0841 1.22212 0.367631
upperneck 4.76847 2.34162 -8.72388
head 4.15177 0.628025 -2.57886
rclavicle 2.22639e-014 2.8625e-014
rhumerus -31.5781 33.8072 304.408
rradius 60.5844
rwrist -701.994
rhand -38.6682 -632.501
rfingers 7.12502
rthumb -11.6837 57.8446
lclavicle 2.22639e-014 2.8625e-014
lhumerus -16.4707 -8.91615 62.8182
lradius 53.0495
lwrist 32.5897
lhand -33.4049 51.9189
lfingers 7.12502
lthumb -6.60514 -278.204
rfemur -91.2441 -5.60568 -1.62063
rtibia 45.9981
rfoot -23.7373 -24.4203
rtoes 11.4466
lfemur -76.3025 29.5078 -25.6561
ltibia 129.23
lfoot -19.6764 14.2627
ltoes -47.8257
